<?xml version="1.0" encoding="utf-8"?><svg viewBox="0 0 1373.333 1706.667" xmlns="http://www.w3.org/2000/svg" xmlns:xlink="http://www.w3.org/1999/xlink"><style>:root>svg{display:none}:root>svg:target{display:block}</style><svg viewBox="0 0 502.664 502.664" id="icon" xmlns="http://www.w3.org/2000/svg"><path d="M153.821 358.226L0 274.337v-46.463l153.821-83.414v54.574L46.636 250.523l107.185 53.431v54.272zm26.273 29.358L282.103 115.08h32.227L212.084 387.584h-31.99zm168.749-29.358v-54.272l107.164-52.999-107.164-52.59v-53.927l153.821 83.522v46.183l-153.821 84.083z"/></svg><svg version="1.0" viewBox="0 0 1030 1280" id="phone-image" xmlns="http://www.w3.org/2000/svg"><path d="M864.6 1c-6 1.6-14.9 6.7-19.4 11.3-7.1 7.2-212 277.8-215.7 284.8-10 19.1-8 41.4 5.3 57.8 1.9 2.4 24.7 21.3 50.6 42.1 48.8 39.1 50.6 40.8 55.5 52.1 5 11.4 6.6 27.9 4.2 43-2.8 17.1-11.3 39.9-24 64.4-17 32.7-20.1 37-112.2 157.6l-87.4 114.7-22.5 23.7c-44.2 46.7-72 70-95.5 80.1-8.7 3.8-9.3 3.9-20.5 3.9-12.3 0-17.2-1.4-24.6-7-1.7-1.3-20.1-23.3-40.7-48.8-20.6-25.5-39-47.6-40.8-49.2-16.3-13.8-41-11.9-56 4.1-5.3 5.7-209.7 274.9-213.6 281.3-11.2 18.6-8.9 44.8 5.5 60.8 3.1 3.5 84.2 64.1 102.1 76.3 28.2 19.2 78.1 29 127.8 25 139.9-11.4 298.4-114.6 454.2-296 119.7-139.3 217.7-292.8 273.3-428 35.1-85.3 54.1-162.7 58.9-240 4.9-78.5-11.3-157.5-41.8-203.7-5-7.6-82.1-97.3-87.6-101.9-6.1-5.2-15-8.6-23.5-9-4.2-.2-9.4.1-11.6.6z"/></svg><svg viewBox="0 0 30 30" id="vk" xmlns="http://www.w3.org/2000/svg"><path d="M15 3C8.373 3 3 8.373 3 15s5.373 12 12 12 12-5.373 12-12S21.627 3 15 3zm6.361 15.967l-1.868.026s-.403.079-.93-.285c-.699-.48-1.358-1.729-1.872-1.567-.521.166-.505 1.29-.505 1.29s.004.198-.115.327c-.129.139-.382.125-.382.125h-.837s-1.846.153-3.473-1.543c-1.772-1.849-3.338-5.498-3.338-5.498s-.092-.23.006-.348c.111-.13.41-.134.41-.134l2-.01s.188.033.324.133c.111.082.174.236.174.236s.323.819.752 1.561c.836 1.446 1.224 1.763 1.508 1.608.414-.226.29-2.044.29-2.044s.008-.66-.208-.954c-.168-.229-.484-.297-.622-.314-.113-.015.071-.277.311-.395.36-.176.996-.186 1.747-.179.585.006.754.042.982.098.69.167.456.811.456 2.356 0 .495-.089 1.191.267 1.42.154.099.529.015 1.464-1.579.445-.756.778-1.644.778-1.644s.073-.158.186-.226c.116-.07.272-.048.272-.048l2.105-.013s.632-.076.735.211c.108.3-.236 1.001-1.096 2.148-1.412 1.884-1.569 1.709-.396 2.799 1.12 1.041 1.351 1.547 1.39 1.611.463.771-.515.832-.515.832z"/></svg><svg viewBox="0 0 30 30" id="yt" xmlns="http://www.w3.org/2000/svg"><path d="M15 4c-4.186 0-9.62 1.049-9.62 1.049l-.013.015A3.99 3.99 0 002 9v12.002a4 4 0 003.377 3.943l.004.006s5.433 1.051 9.619 1.051 9.62-1.05 9.62-1.05l.001-.003A4 4 0 0028 21.002V9a4 4 0 00-3.377-3.945l-.004-.006S19.186 4 15 4zm-3 6.398L20 15l-8 4.602v-9.204z"/></svg></svg>